<svg xmlns="http://www.w3.org/2000/svg" xmlns:xlink="http://www.w3.org/1999/xlink" version="1.1" id="Calque_1" x="0px" y="0px" viewBox="-947 529 24 24" style="enable-background:new -947 529 24 24;" xml:space="preserve">
<style type="text/css">
	.st0{fill:none;}
	.st1{fill:#FFFFFF;}
</style>
<path class="st0" d="M-947,529h24v24h-24V529z"/>
<g id="XMLID_6_">
	<path id="XMLID_40_" class="st1" d="M-930,535.9h-4v-3h-2v3h-4c-2.2,0-4,1.8-4,4v4.2v2.1c0,1.8,1.5,3,3,3c0.8,0,1.6-0.3,2.2-1   l1.6-1.7c0.6-0.6,1.4-1,2.2-1s1.6,0.3,2.2,1l1.6,1.7c0.6,0.7,1.4,1,2.2,1c1.5,0,3-1.2,3-3V544v-4.2   C-926,537.7-927.8,535.9-930,535.9z M-928,544v2.1c0,0.7-0.6,1-1,1c-0.3,0-0.5-0.1-0.7-0.3l-1.6-1.7c-0.9-1-2.3-1.6-3.7-1.6   s-2.7,0.6-3.7,1.6l-1.6,1.7c-0.2,0.2-0.4,0.3-0.7,0.3c-0.4,0-1-0.3-1-1V544v-4.2c0-1.1,0.9-2,2-2h10c1.1,0,2,0.9,2,2V544z"/>
</g>
</svg>