<svg version="1.1" id="Calque_1" xmlns="http://www.w3.org/2000/svg" xmlns:xlink="http://www.w3.org/1999/xlink" x="0px" y="0px"
	 viewBox="-947 529 24 24" style="enable-background:new -947 529 24 24;" xml:space="preserve">
<style type="text/css">
	.st0{fill:none;}
	.st1{fill:#FFFFFF;}
</style>
<path class="st0" d="M-947,529h24v24h-24V529z"/>
<g id="XMLID_1_">
	<path id="XMLID_13_" class="st1" d="M-935,532c-5,0-9,4-9,9s4,9,9,9s9-4,9-9S-930,532-935,532z M-935,548c-3.9,0-7-3.1-7-7
		s3.1-7,7-7s7,3.1,7,7S-931.1,548-935,548z"/>
	<polygon id="XMLID_12_" class="st1" points="-931.5,543.1 -932.9,544.5 -936,541.4 -936,535.7 -934,535.7 -934,540.6 	"/>
</g>
</svg>
