<svg xmlns="http://www.w3.org/2000/svg" xmlns:xlink="http://www.w3.org/1999/xlink" version="1.1" id="Calque_1" x="0px" y="0px" viewBox="-387 289 24 24" style="enable-background:new -387 289 24 24;" xml:space="preserve">
<style type="text/css">
	.st0{fill:none;}
	.st1{fill:#FFFFFF;}
</style>
<path class="st0" d="M-387,289h24v24h-24V289z"/>
<path class="st1" d="M-367.7,294.8l1.4-1.4l-1.1-1.1l-1.4,1.4c-1.1-0.9-2.5-1.4-4-1.4h0c-6,0-10.9,4.9-10.9,10.9v6.4h6.4  c6,0,10.9-4.9,10.9-10.9h0C-366.4,297.3-366.9,295.9-367.7,294.8z M-377.2,307.7h-4.4v-4.4c0-4.9,4-8.9,8.9-8.9h0  c0.9,0,1.8,0.3,2.5,0.8l-1.2,1.2h-5.5v1.5h4l-2.3,2.3h-3.6v1.5h2.1l-3.2,3.2l1.1,1.1l3.2-3.2v2.1h1.5v-3.6l2.3-2.3v4h1.5v-5.5  l1.2-1.2c0.5,0.7,0.8,1.6,0.8,2.5C-368.4,303.7-372.3,307.7-377.2,307.7z"/>
</svg>