<svg xmlns="http://www.w3.org/2000/svg" xmlns:xlink="http://www.w3.org/1999/xlink" version="1.1" id="Calque_1" x="0px" y="0px" viewBox="-947 529 24 24" style="enable-background:new -947 529 24 24;" xml:space="preserve">
<style type="text/css">
	.st0{fill:none;}
	.st1{fill:#FFFFFF;}
</style>
<path class="st0" d="M-947,529h24v24h-24V529z"/>
<g id="XMLID_8_">
	<path id="XMLID_31_" class="st1" d="M-928.6,544.8v-4.5c0-3.1-2.1-5.6-5-6.2c0,0,0-0.1,0-0.1c0-0.8-0.6-1.4-1.4-1.4   s-1.4,0.6-1.4,1.4c0,0.1,0,0.1,0,0.1c-2.9,0.6-5,3.2-5,6.2v4.5h-1v2h1h3.6c0,1.5,1.2,2.8,2.8,2.8s2.8-1.2,2.8-2.8h3.6h1v-2H-928.6z    M-935,547.5c-0.4,0-0.8-0.3-0.8-0.8h1.5C-934.3,547.2-934.6,547.5-935,547.5z M-930.6,544.8h-8.8v-4.5c0-2.4,2-4.4,4.4-4.4   c2.4,0,4.4,2,4.4,4.4V544.8z"/>
</g>
</svg>