<svg xmlns="http://www.w3.org/2000/svg" xmlns:xlink="http://www.w3.org/1999/xlink" version="1.1" id="Calque_1" x="0px" y="0px" viewBox="-947 529 24 24" style="enable-background:new -947 529 24 24;" xml:space="preserve">
<style type="text/css">
	.st0{fill:none;}
	.st1{fill:#FFFFFF;}
</style>
<path class="st0" d="M-947,529h24v24h-24V529z"/>
<g id="XMLID_3_">
	<path id="XMLID_59_" class="st1" d="M-935,531.5c-5,0-9,4-9,9c0,3,1.5,5.7,3.8,7.3v-2.7c-1.1-1.2-1.8-2.9-1.8-4.7c0-3.9,3.1-7,7-7   s7,3.1,7,7c0,1.8-0.7,3.4-1.8,4.7v2.7c2.3-1.6,3.8-4.3,3.8-7.3C-926,535.5-930,531.5-935,531.5z"/>
	<g id="XMLID_55_">
		<path id="XMLID_56_" class="st1" d="M-932.8,545.5v0.8c0,1.2-1,2.2-2.2,2.2s-2.2-1-2.2-2.2v-0.8H-932.8 M-930.8,543.5h-8.4v2.8    c0,2.3,1.9,4.2,4.2,4.2s4.2-1.9,4.2-4.2V543.5z"/>
	</g>
	<rect id="XMLID_54_" x="-940.2" y="540.2" class="st1" width="2" height="2"/>
	<rect id="XMLID_53_" x="-931.8" y="540.2" class="st1" width="2" height="2"/>
</g>
</svg>