<svg xmlns="http://www.w3.org/2000/svg" xmlns:xlink="http://www.w3.org/1999/xlink" version="1.1" id="Calque_1" x="0px" y="0px" viewBox="-947 529 24 24" style="enable-background:new -947 529 24 24;" xml:space="preserve">
<style type="text/css">
	.st0{fill:none;}
	.st1{fill:#FFFFFF;}
</style>
<path class="st0" d="M-947,529h24v24h-24V529z"/>
<g id="XMLID_26_">
	<path id="XMLID_27_" class="st1" d="M-931.3,535.5c1.4,0,2.5,1.1,2.5,2.5c0,2.1-2.4,4.4-6.1,7.7c-3.7-3.4-6.1-5.6-6.1-7.7   c0-1.5,1.2-2.6,2.7-2.5c0.8,0.1,1.5,0.5,2,1.1l0.7,0.8c0.4,0.5,1.1,0.5,1.5,0l0.8-0.9C-932.9,535.9-932.1,535.5-931.3,535.5    M-931.3,533.5c-1.4,0-2.8,0.7-3.7,1.7c-0.9-1-2.2-1.7-3.7-1.7c-2.5,0-4.5,2-4.5,4.5c0,3.1,2.8,5.6,7,9.4l1.2,1.1l1.2-1.1   c4.2-3.8,7-6.3,7-9.4C-926.9,535.5-928.8,533.5-931.3,533.5z"/>
</g>
</svg>