<svg xmlns="http://www.w3.org/2000/svg" xmlns:xlink="http://www.w3.org/1999/xlink" version="1.1" id="Calque_1" x="0px" y="0px" viewBox="-947 529 24 24" style="enable-background:new -947 529 24 24;" xml:space="preserve">
<style type="text/css">
	.st0{fill:none;}
	.st1{fill:#FFFFFF;}
</style>
<path class="st0" d="M-947,529h24v24h-24V529z"/>
<g id="XMLID_7_">
	<path id="XMLID_36_" class="st1" d="M-926,541.1c0-1.1-0.9-2-2-2h-1.8v-3.2c0-1.1-0.9-2-2-2h-6.5c-1.1,0-2,0.9-2,2v3.2h-1.8   c-1.1,0-2,0.9-2,2v5h1.7c0.4,1.2,1.5,2,2.8,2c1.3,0,2.4-0.8,2.8-2h3.2c0.4,1.2,1.5,2,2.8,2c1.3,0,2.4-0.8,2.8-2h1.7V541.1z    M-928,544.1h-0.7c0,0,0,0,0,0h-5.7c0,0,0,0,0,0h-1.2c0,0,0,0,0,0h-5.7c0,0,0,0,0,0h-0.7v-3h3.8v-5.2h6.5v5.2h3.8V544.1z"/>
</g>
</svg>