<?xml version="1.0" standalone="no"?>
<!DOCTYPE svg PUBLIC "-//W3C//DTD SVG 20010904//EN"
 "http://www.w3.org/TR/2001/REC-SVG-20010904/DTD/svg10.dtd">
<svg version="1.0" xmlns="http://www.w3.org/2000/svg"
 width="156.000000pt" height="108.000000pt" viewBox="0 0 156.000000 108.000000"
 preserveAspectRatio="xMidYMid meet">

<g transform="translate(0.000000,108.000000) scale(0.100000,-0.100000)"
fill="#000000" stroke="none">
<path d="M895 1061 c-44 -27 -71 -60 -95 -114 -12 -26 -22 -47 -24 -47 -2 0
-17 7 -32 15 -46 24 -141 19 -190 -9 l-41 -23 -11 42 c-14 54 -53 100 -105
126 -58 30 -149 23 -207 -15 -80 -53 -115 -179 -86 -316 18 -85 58 -156 104
-185 39 -25 40 -41 5 -50 -69 -17 -184 -68 -198 -88 -10 -14 -15 -46 -15 -94
0 -65 2 -74 24 -88 40 -26 86 -36 203 -42 l112 -6 -6 -42 c-4 -35 -1 -47 15
-63 34 -34 117 -53 257 -59 149 -6 258 7 325 40 44 21 45 23 48 74 l3 51 127
4 c106 2 133 6 162 24 34 19 35 22 38 89 2 38 0 80 -3 92 -6 26 -66 59 -167
92 -37 13 -70 26 -73 31 -3 5 10 18 29 29 74 46 118 150 120 286 1 80 -2 96
-28 148 -41 84 -94 117 -190 117 -52 0 -79 -5 -101 -19z m190 -49 c17 -10 40
-38 54 -66 62 -125 3 -368 -96 -392 -21 -6 -24 -11 -21 -47 3 -46 4 -47 119
-87 120 -43 123 -46 124 -116 l0 -59 -40 -13 c-22 -8 -86 -16 -142 -19 -102
-6 -103 -6 -123 20 -19 24 -129 74 -203 92 -63 16 -15 56 125 105 l83 29 3 44
c3 41 1 45 -28 57 -51 21 -70 54 -70 124 -1 33 -8 79 -16 101 -25 65 -27 83
-14 131 30 107 146 152 245 96z m-695 -4 c41 -28 80 -99 80 -147 0 -20 -7 -58
-15 -85 -8 -27 -15 -68 -15 -90 0 -53 -30 -102 -75 -123 -33 -16 -36 -20 -33
-56 l3 -39 90 -32 c104 -37 145 -61 145 -85 0 -14 2 -14 11 -1 8 12 10 12 7 1
-2 -8 -33 -24 -69 -36 -98 -34 -161 -67 -167 -87 -4 -15 -15 -18 -71 -18 -84
0 -185 16 -223 36 -27 14 -28 17 -22 67 3 29 12 58 19 65 7 8 59 31 116 52
l104 38 3 39 c2 35 0 40 -35 58 -59 31 -94 110 -101 223 -4 81 -2 95 21 145
32 70 71 97 143 97 36 0 61 -6 84 -22z m333 -129 c43 -22 77 -63 93 -112 36
-109 -6 -309 -70 -339 -14 -6 -26 -15 -26 -19 0 -4 -9 -11 -21 -14 -17 -6 -20
-14 -17 -47 l3 -41 80 -28 c96 -32 152 -56 158 -66 3 -5 8 -34 12 -66 l7 -57
-37 -15 c-63 -27 -239 -40 -359 -27 -59 6 -120 19 -136 27 -28 14 -30 20 -30
68 0 28 4 57 8 63 11 17 48 34 147 70 l90 32 2 38 c3 36 0 41 -41 67 -55 34
-85 92 -99 190 -18 126 19 232 93 269 40 20 111 23 143 7z m-246 -415 c-6 -7
-101 34 -105 44 -2 6 6 13 16 16 11 4 28 16 38 27 18 20 18 20 36 -32 10 -29
17 -54 15 -55z m453 35 c0 -3 -22 -12 -49 -21 l-48 -15 15 47 15 48 34 -26
c18 -15 33 -30 33 -33z"/>
<path d="M1420 1010 l0 -50 -50 0 c-43 0 -50 -3 -50 -20 0 -17 7 -20 50 -20
l50 0 0 -50 c0 -43 3 -50 20 -50 17 0 20 7 20 50 l0 50 50 0 c43 0 50 3 50 20
0 17 -7 20 -50 20 l-50 0 0 50 c0 43 -3 50 -20 50 -17 0 -20 -7 -20 -50z"/>
</g>
</svg>
