<?xml version="1.0" standalone="no"?>
<!DOCTYPE svg PUBLIC "-//W3C//DTD SVG 20010904//EN"
 "http://www.w3.org/TR/2001/REC-SVG-20010904/DTD/svg10.dtd">
<svg version="1.0" xmlns="http://www.w3.org/2000/svg"
 width="156.000000pt" height="108.000000pt" viewBox="0 0 156.000000 108.000000"
 preserveAspectRatio="xMidYMid meet">

<g transform="translate(0.000000,108.000000) scale(0.100000,-0.100000)"
fill="#000000" stroke="none">
<path d="M905 1068 c-40 -22 -78 -64 -100 -111 -13 -27 -22 -54 -21 -60 2 -11
46 -87 49 -87 1 0 2 24 2 53 1 105 63 171 160 171 70 0 114 -27 144 -88 62
-125 3 -368 -96 -392 -21 -6 -24 -11 -21 -47 3 -46 4 -47 119 -87 120 -43 123
-46 124 -116 l0 -59 -40 -13 c-22 -8 -88 -16 -147 -19 -101 -5 -108 -7 -108
-27 0 -21 3 -21 133 -16 109 4 138 9 167 26 34 19 35 22 38 89 2 38 0 80 -3
92 -6 26 -66 59 -167 92 -37 13 -70 26 -73 31 -3 5 10 18 29 29 121 75 164
332 76 462 -43 65 -91 89 -175 89 -38 0 -79 -6 -90 -12z"/>
<path d="M209 1047 c-57 -30 -97 -94 -111 -178 -21 -123 32 -285 110 -334 17
-11 31 -25 32 -31 0 -6 -26 -18 -57 -28 -107 -34 -162 -63 -173 -91 -6 -15
-10 -55 -10 -90 0 -57 3 -66 24 -80 40 -27 87 -36 209 -42 115 -6 117 -6 117
16 0 19 -5 21 -67 21 -86 0 -187 16 -225 36 -27 14 -28 17 -22 67 3 29 12 58
19 65 7 8 59 31 116 52 l104 38 3 39 c2 35 0 40 -35 58 -59 31 -94 110 -101
223 -4 81 -2 95 21 145 32 70 71 97 142 97 87 0 149 -59 163 -156 l7 -46 22
24 c22 23 22 23 4 76 -10 29 -29 64 -42 78 -62 67 -168 84 -250 41z"/>
<path d="M416 605 c-10 -14 -33 -33 -52 -42 -32 -16 -35 -20 -32 -56 l3 -39
90 -33 c50 -18 99 -36 110 -40 15 -6 11 1 -13 27 -18 19 -54 42 -85 52 -58 21
-79 36 -59 43 31 11 72 56 72 78 0 34 -15 39 -34 10z"/>
<path d="M860 585 c0 -16 12 -34 35 -52 19 -15 35 -31 35 -34 0 -6 -90 -35
-100 -32 -3 0 -20 -19 -38 -44 l-34 -44 30 15 c16 8 63 26 103 40 l74 25 3 44
c3 41 1 45 -27 56 -16 7 -37 21 -47 32 -23 26 -34 24 -34 -6z"/>
</g>
</svg>
