<svg xmlns="http://www.w3.org/2000/svg" width="360" height="280">
  <g fill="none" fill-rule="evenodd">
    <path fill="#7289DA" d="M73.5062 34.6517s5.385 30.693 36.856 27.542c30.144-3.017 60.38-10.574 94.144-10.542 28 .027 57.742 11.403 60.677-8.383 2.625-17.696-10.272-35.269-46.226-35.269s-85.115 15.484-106.394 19.785c-21.278 4.301-39.057 6.867-39.057 6.867"/>
    <path stroke="#231F1F" stroke-width="6" d="M73.5062 34.6517s5.385 30.693 36.856 27.542c30.144-3.017 60.38-10.574 94.144-10.542 28 .027 57.742 11.403 60.677-8.383 2.625-17.696-10.272-35.269-46.226-35.269s-85.115 15.484-106.394 19.785c-21.278 4.301-39.057 6.867-39.057 6.867z" stroke-linecap="round" stroke-linejoin="round" stroke-dasharray="260 29"/>
    <path fill="#7289DA" d="M127.2387 115.8403l2.201-10.251s-15.837-4.3-8.805-20.501c5.872-13.526 45.493-15.77 58.7-7.096 13.208 8.673 13.941 21.289 13.941 21.289s107.128-18.135 118.134 18.925c11.006 37.059-27.149 22.078-54.298 22.078-27.148 0-44.024 3.942-44.024 3.942s50.628 18.925 82.913 39.426 70.846 47.594 47.694 77.274c-23.188 29.725-54.58-2.41-96.121-30.752-52.067-35.523-74.067-47.523-74.067-47.523s-19 41-45 66.226c-35.149 34.1-90.785 29.396-119.402-24.223 0 0 32.532.133 55.765-14.981 25.637-16.677 42.558-41.791 42.558-41.791s-53.564 29.963-80.713 10.25c-27.148-19.712-21.278-27.598-4.402-31.54 14.5-3.388 104.926-30.752 104.926-30.752"/>
    <path stroke="#231F1F" stroke-width="6" d="M127.2387 115.8403l2.201-10.251s-15.837-4.3-8.805-20.501c5.872-13.526 45.493-15.77 58.7-7.096 13.208 8.673 13.941 21.289 13.941 21.289s107.128-18.135 118.134 18.925c11.006 37.059-27.149 22.078-54.298 22.078-27.148 0-44.024 3.942-44.024 3.942s50.628 18.925 82.913 39.426 70.846 47.594 47.694 77.274c-23.188 29.725-54.58-2.41-96.121-30.752-52.067-35.523-74.067-47.523-74.067-47.523s-19 41-45 66.226c-35.149 34.1-90.785 29.396-119.402-24.223 0 0 32.532.133 55.765-14.981 25.637-16.677 42.558-41.791 42.558-41.791s-53.564 29.963-80.713 10.25c-27.148-19.712-21.278-27.598-4.402-31.54 14.5-3.388 104.926-30.752 104.926-30.752z" stroke-linecap="round" stroke-linejoin="round" stroke-dasharray="510 20"/>
    <path fill="#36393E" d="M127.2387 115.8403l-5.732 16.976"/>
    <path stroke="#231F1F" stroke-width="6" d="M127.2387 115.8403l-5.732 16.976" stroke-linecap="round" stroke-linejoin="round" stroke-dasharray="500 20"/>
    <path stroke="#231F1F" stroke-width="6" d="M177.5062 171.7272s6-12.045 11-31.388" stroke-linecap="round" stroke-linejoin="round" stroke-dasharray="23 10"/>
    <path fill="#36393E" d="M213.0873 144.2267l-6.581 1.485"/>
    <path stroke="#231F1F" stroke-width="6" d="M213.0873 144.2267l-6.581 1.485" stroke-linecap="round" stroke-linejoin="round" stroke-dasharray="500 20"/>
    <path d="M0 0h360v280H0z"/>
  </g>
</svg>