<?xml version="1.0" standalone="no"?>
<!DOCTYPE svg PUBLIC "-//W3C//DTD SVG 20010904//EN"
 "http://www.w3.org/TR/2001/REC-SVG-20010904/DTD/svg10.dtd">
<svg version="1.0" xmlns="http://www.w3.org/2000/svg"
 width="179.000000pt" height="179.000000pt" viewBox="0 0 179.000000 179.000000"
 preserveAspectRatio="xMidYMid meet">

<g transform="translate(0.000000,179.000000) scale(0.100000,-0.100000)"
fill="white" stroke="none">
 <!--<animate attributeName="fill" values="red;blue;red" dur="10s" repeatCount="indefinite" />-->
<path d="M735 1534 c-219 -53 -408 -243 -459 -464 -9 -36 -16 -80 -16 -97 l0
-33 75 0 74 0 6 38 c36 214 200 386 392 410 l58 7 3 78 3 77 -38 -1 c-21 0
-65 -7 -98 -15z"/>
<path d="M900 1476 l0 -74 68 -12 c199 -34 373 -208 389 -389 l6 -61 73 0 74
0 0 44 c0 54 -42 183 -82 256 -48 84 -169 198 -258 242 -82 42 -173 68 -232
68 l-38 0 0 -74z"/>
<path d="M964 1061 c-23 -10 -54 -36 -70 -57 -25 -33 -29 -46 -29 -105 0 -60
3 -71 31 -106 65 -80 178 -94 249 -31 57 49 43 79 -17 37 -67 -48 -162 -28
-200 42 -22 42 -23 71 -1 116 34 72 118 94 186 47 37 -25 73 -26 65 -2 -2 6
-20 25 -39 40 -47 38 -118 46 -175 19z"/>
<path d="M620 905 l0 -165 110 0 110 0 0 25 c0 25 -1 25 -85 25 l-85 0 0 50 0
50 70 0 c63 0 70 2 70 20 0 18 -7 20 -70 20 l-70 0 0 45 0 45 85 0 c84 0 85 0
85 25 l0 25 -110 0 -110 0 0 -165z"/>
<path d="M260 878 c0 -58 30 -161 68 -238 46 -94 167 -219 259 -268 66 -35
195 -72 250 -72 l33 0 0 75 0 74 -37 6 c-217 36 -374 185 -413 390 l-12 65
-74 0 -74 0 0 -32z"/>
<path d="M1357 850 c-16 -183 -188 -355 -389 -390 l-68 -12 0 -75 0 -76 66 7
c138 14 284 92 389 208 84 91 155 257 155 360 l0 38 -74 0 -73 0 -6 -60z"/>
</g>
</svg>
