<svg xmlns="http://www.w3.org/2000/svg" width="40" height="40" viewBox="0 0 40 40">
  <g fill="none" fill-rule="evenodd">
    <path fill="#FFF" fill-opacity=".8" d="M21.2261735,30 L21.2261735,25.8463727 L17.4708393,25.8463727 L17.4708393,30 L21.2261735,30 Z M20.7140825,21.3798009 C24.3840683,20.0426743 26.4324324,18.4210526 26.4324324,15.2347084 C26.4324324,11.9630156 24.0711238,10 20.344239,10 C17.7553343,10 15.7069701,10.8250356 14,12.0483642 L14.4836415,15.3485064 C16.1052632,14.0967283 17.9544808,13.1863442 19.9743954,13.1863442 C21.6813656,13.1863442 22.8193457,14.0398293 22.8193457,15.4907539 C22.8193457,17.083926 21.7382646,17.9658606 19.0071124,18.9331437 L18.1251778,19.2745377 L18.4665718,23.7980085 L20.5433855,23.3428165 L20.7140825,21.3798009 Z"/>
    
    <circle cx="9" cy="9" r="2" fill="#FFF" fill-opacity=".4"/>
    <circle cx="9" cy="31" r="2" fill="#FFF" fill-opacity=".4"/>
    <circle cx="31" cy="9" r="2" fill="#FFF" fill-opacity=".4"/>
    <circle cx="31" cy="31" r="2" fill="#FFF" fill-opacity=".4"/>
  </g>
</svg>