<?xml version="1.0" encoding="iso-8859-1"?>
<!-- Generator: Adobe Illustrator 18.0.0, SVG Export Plug-In . SVG Version: 6.00 Build 0)  -->
<!DOCTYPE svg PUBLIC "-//W3C//DTD SVG 1.1//EN" "http://www.w3.org/Graphics/SVG/1.1/DTD/svg11.dtd">
<svg version="1.1" id="Capa_1" xmlns="http://www.w3.org/2000/svg" xmlns:xlink="http://www.w3.org/1999/xlink" x="0px" y="0px"
	 viewBox="0 0 489.493 489.493" style="enable-background:new 0 0 489.493 489.493;" xml:space="preserve">
<path d="M485.322,117.705c12.204-12.238-3.274-47.577-34.636-78.93c-30.99-30.99-65.76-46.396-78.401-34.941l-0.246-0.236
	l-173.715,156.02c-32.117-27.993-80.684-27.038-111.278,3.534c-5.149,5.157-8.051,12.146-8.051,19.437
	c0,7.292,2.901,14.283,8.051,19.431l78.808,78.801L3.902,463.627c-5.148,5.799-5.262,14.655,0.015,20.601
	c5.689,6.403,15.497,6.992,21.916,1.294l182.575-162.137l7.84,7.829l40.601,40.603l0,0l30.336,30.329
	c5.15,5.147,12.139,8.039,19.424,8.039c7.278,0,14.272-2.898,19.419-8.056c30.561-30.573,31.524-79.158,3.539-111.27L484.771,118.03
	C484.927,117.892,485.177,117.861,485.322,117.705z"/>
<g>
</g>
<g>
</g>
<g>
</g>
<g>
</g>
<g>
</g>
<g>
</g>
<g>
</g>
<g>
</g>
<g>
</g>
<g>
</g>
<g>
</g>
<g>
</g>
<g>
</g>
<g>
</g>
<g>
</g>
</svg>
